<?xml version="1.0" encoding="UTF-8" standalone="no"?>
<!-- Created with Inkscape (http://www.inkscape.org/) -->

<svg
   xmlns:dc="http://purl.org/dc/elements/1.1/"
   xmlns:cc="http://creativecommons.org/ns#"
   xmlns:rdf="http://www.w3.org/1999/02/22-rdf-syntax-ns#"
   xmlns:svg="http://www.w3.org/2000/svg"
   xmlns="http://www.w3.org/2000/svg"
   xmlns:sodipodi="http://sodipodi.sourceforge.net/DTD/sodipodi-0.dtd"
   xmlns:inkscape="http://www.inkscape.org/namespaces/inkscape"
   width="210mm"
   height="297mm"
   viewBox="0 0 210 297"
   version="1.1"
   id="svg8"
   inkscape:version="0.92.2 (5c3e80d, 2017-08-06)"
   sodipodi:docname="σχεδίαση-1.svg">
  <defs
     id="defs2">
    <clipPath
       clipPathUnits="userSpaceOnUse"
       id="clipPath25">
      <path
         style="fill:none;stroke:#000000;stroke-width:0.26458332px;stroke-linecap:butt;stroke-linejoin:miter;stroke-opacity:1"
         d="m -65.76808,97.806433 c -17.626687,2.729237 -28.503446,6.451107 -34.017561,10.961607 -4.266699,-0.0408 -7.758539,3.79281 -11.339359,7.18147 -9.40835,9.51373 -23.64597,19.41533 -19.27686,35.52961 0.0856,1.61402 -6.89399,4.69663 3.02411,15.49725 3.47691,17.90898 24.69398,16.95963 33.353615,15.9397 -4.039095,7.2876 19.799287,21.00428 45.265353,9.00658 1.23621,11.11253 14.030812,12.08986 16.631028,30.61622 h 9.222176 c 0.770912,-4.66254 -3.425396,-6.92742 -2.418974,-12.85141 6.153354,2.28749 42.609836,3.58713 36.28564,-20.41064 18.04577,2.1018 20.974893,-26.40018 11.717631,-43.08936 -0.59339,-9.38443 -5.076027,-12.28678 -8.693526,-16.63103 C 10.418012,122.15856 6.3191663,115.11812 -0.75602621,113.30368 -9.8517633,102.27554 -20.514675,99.790083 -31.372246,100.07451 c -4.682223,-4.705797 -12.078055,-3.394212 -17.00878,-2.268077 l -2.04122,2.418977 c -2.348421,-2.881471 -7.296672,-3.813064 -15.345834,-2.418977 z"
         id="path27"
         inkscape:connector-curvature="0"
         sodipodi:nodetypes="cccccccccccccccccc" />
    </clipPath>
  </defs>
  <sodipodi:namedview
     id="base"
     pagecolor="#ffffff"
     bordercolor="#666666"
     borderopacity="1.0"
     inkscape:pageopacity="0.0"
     inkscape:pageshadow="2"
     inkscape:zoom="0.35"
     inkscape:cx="610.84568"
     inkscape:cy="936.80199"
     inkscape:document-units="mm"
     inkscape:current-layer="layer1"
     showgrid="false"
     inkscape:window-width="1366"
     inkscape:window-height="705"
     inkscape:window-x="239"
     inkscape:window-y="1072"
     inkscape:window-maximized="1" />
  <metadata
     id="metadata5">
    <rdf:RDF>
      <cc:Work
         rdf:about="">
        <dc:format>image/svg+xml</dc:format>
        <dc:type
           rdf:resource="http://purl.org/dc/dcmitype/StillImage" />
        <dc:title></dc:title>
      </cc:Work>
    </rdf:RDF>
  </metadata>
  <g
     inkscape:label="Layer 1"
     inkscape:groupmode="layer"
     id="layer1">
    <g
       aria-label="Anthropos2.0"
       transform="scale(0.91058361,1.0981968)"
       style="font-style:normal;font-variant:normal;font-weight:bold;font-stretch:normal;font-size:55.78839493px;line-height:5490.98388672px;font-family:'Berlin Sans FB';-inkscape-font-specification:'Berlin Sans FB Bold';letter-spacing:-2.46689343px;word-spacing:0px;fill:#008080;fill-opacity:1;stroke:none;stroke-width:0.26458332"
       id="text4557"
       inkscape:export-filename="C:\Work\Anthropos2\Pictures\LOGO\1.png"
       inkscape:export-xdpi="91"
       inkscape:export-ydpi="91">
      <path
         d="m 64.100617,54.000493 q 0,0.381366 -1.089617,0.381366 -1.171338,0 -3.541256,-0.108962 -2.369917,-0.108962 -3.541255,-0.108962 -1.171338,0 -3.486775,0.108962 -2.315436,0.108962 -3.486774,0.108962 -0.708252,0 -0.817213,-0.817213 0,0.02724 0,-1.334781 0,-1.089617 -1.035136,-1.089617 -6.34702,0 -7.436637,0.354126 -1.089617,0.326885 -1.334781,1.688906 -0.217923,1.198579 -0.871694,1.198579 -1.116857,0 -3.350572,-0.108962 -2.233715,-0.108962 -3.350573,-0.108962 -1.089617,0 -3.323332,0.108962 -2.206475,0.108962 -3.296092,0.108962 -0.789972,0 -0.789972,-0.681011 0,-0.817213 12.884722,-37.155943 0.245164,-0.68101 0.435847,-0.817212 0.190683,-0.163443 0.844453,-0.163443 0.953415,0 2.805764,0.245164 1.87959,0.245164 2.833005,0.245164 3.8409,0 5.366364,-0.381366 0.326885,-0.108962 0.463087,-0.108962 0.463087,0 1.089617,0.926175 0.272404,0.408606 2.233715,4.876036 1.552704,3.432294 4.412949,10.378603 1.362022,3.622977 3.650218,10.977892 2.315436,7.354915 3.650217,10.923411 0.08172,0.245164 0.08172,0.354126 z M 45.931252,36.430417 q 0,-2.151993 -2.397157,-3.595736 -2.397158,1.743387 -2.397158,3.595736 0,0.953415 0.708251,1.688907 0.735492,0.708251 1.688907,0.708251 0.980655,0 1.688906,-0.708251 0.708251,-0.735492 0.708251,-1.688907 z"
         style="font-style:normal;font-variant:normal;font-weight:bold;font-stretch:normal;font-family:'Berlin Sans FB';-inkscape-font-specification:'Berlin Sans FB Bold';letter-spacing:-2.46689343px;fill:#008080;stroke-width:0.26458332"
         id="path4951" />
      <path
         d="m 93.505027,53.373963 q 0,1.116858 -1.007896,1.116858 -0.926175,0 -2.751283,-0.08172 -1.825109,-0.08172 -2.724043,-0.08172 -0.953415,0 -2.860245,0.02724 -1.879589,0.02724 -2.833004,0.02724 -1.062377,0 -1.062377,-1.389262 0,-1.25306 0.05448,-3.704698 0.05448,-2.478879 0.05448,-3.731939 0,-0.926174 -0.05448,-2.778523 -0.05448,-1.852349 -0.05448,-2.778524 0,-1.579945 -1.552704,-1.579945 -1.579945,0 -1.579945,1.525464 v 13.157127 q 0,1.389262 -1.171339,1.389262 -0.871693,0 -2.642321,-0.08172 -1.770628,-0.08172 -2.642321,-0.08172 -0.926175,0 -2.805764,0.02724 -1.852349,0.02724 -2.778524,0.02724 -1.171338,0 -1.171338,-1.171339 V 40.489241 q 0,-5.911173 -1.2803,-10.596526 -0.08172,-0.299645 -0.08172,-0.517568 0,-0.517568 0.463088,-0.708251 2.778523,-0.354126 6.592183,-0.898935 5.638768,-1.089617 6.483222,-1.089617 0.544808,0 0.68101,1.797869 0.136202,1.797868 0.435847,1.797868 -0.217923,0 2.805764,-1.579945 3.050928,-1.579945 5.039479,-1.579945 3.296092,0 5.693249,1.552705 2.751284,1.825108 2.751284,4.957757 z"
         style="font-style:normal;font-variant:normal;font-weight:bold;font-stretch:normal;font-family:'Berlin Sans FB';-inkscape-font-specification:'Berlin Sans FB Bold';letter-spacing:-2.46689343px;fill:#008080;stroke-width:0.26458332"
         id="path4953" />
      <path
         d="m 115.55452,43.948775 q 0,1.144098 -0.27241,3.459534 -0.24516,2.288196 -0.24516,3.459535 0,1.007896 -0.24516,1.334781 -0.21793,0.299644 -1.19858,0.844453 -3.21437,1.716147 -8.09041,1.716147 -9.316226,0 -9.316226,-6.074615 0,-1.443743 0.136202,-4.358469 0.136202,-2.941966 0.136202,-4.385709 0,-1.144098 -1.2803,-1.171338 -1.2803,-0.02724 -1.2803,-0.844453 0,-0.62653 0.08172,-1.852349 0.08172,-1.25306 0.08172,-1.87959 0,-0.708251 -0.108961,-2.070272 -0.08172,-1.389262 -0.08172,-2.070273 0,-0.599289 1.089617,-0.953415 1.116858,-0.381366 1.116858,-1.116857 v -3.405054 q 0,-3.813659 -0.02724,-3.21437 0.108961,-2.615081 0.789972,-2.615081 0.681011,0 2.696802,0.463087 2.179234,0.517568 2.941964,0.572049 0.51757,0.05448 2.88749,0.381366 1.77063,0.245164 2.86024,0.245164 0.76273,0 0.76273,0.599289 0,0.980656 -0.19068,2.969207 -0.19068,1.961311 -0.19068,2.941966 0,0.789973 0.78997,0.789973 0.87169,0 2.58784,-0.08172 1.74339,-0.08172 2.61508,-0.08172 0.65377,0 0.65377,0.517568 0,0.817213 -0.19068,2.53336 -0.19068,1.716147 -0.19068,2.58784 0,0.871694 0.0545,2.615081 0.0545,1.743388 0.0545,2.615081 0,0.681011 -0.84445,0.681011 -0.78998,0 -2.36992,-0.05448 -1.57995,-0.05448 -2.36992,-0.05448 -0.78997,0 -0.78997,0.898935 0,2.397157 2.23371,3.21437 1.30754,0.517568 4.22227,0.517568 0.49033,0 0.49033,0.326885 z"
         style="font-style:normal;font-variant:normal;font-weight:bold;font-stretch:normal;font-family:'Berlin Sans FB';-inkscape-font-specification:'Berlin Sans FB Bold';letter-spacing:-2.46689343px;fill:#008080;stroke-width:0.26458332"
         id="path4955" />
      <path
         d="m 146.21198,33.897058 q 0,3.268851 -0.0545,9.779313 -0.0545,6.510462 -0.0545,9.752073 0,1.116857 -1.0079,1.116857 -0.92617,0 -2.75128,-0.108961 -1.82511,-0.108962 -2.72404,-0.108962 -0.95342,0 -2.86025,0.02724 -1.87959,0.02724 -2.833,0.02724 -1.06238,0 -1.06238,-1.389262 0,-1.25306 0.0545,-3.704698 0.0545,-2.478879 0.0545,-3.731939 0,-0.926174 -0.0545,-2.778523 -0.0545,-1.852349 -0.0545,-2.778524 0,-1.579945 -1.33478,-1.579945 -1.38926,0 -1.38926,1.688907 V 53.15604 q 0,1.389261 -1.17134,1.389261 -0.89893,0 -2.66956,-0.108961 -1.74339,-0.108962 -2.64232,-0.108962 -0.92618,0 -2.77853,0.02724 -1.85235,0.02724 -2.80576,0.02724 -1.17134,0 -1.17134,-1.171339 V 40.489241 q 0,-6.782866 -0.29964,-15.118437 -0.0272,-1.87959 -0.0817,-3.759179 -0.0817,-2.260956 -0.43584,-3.704698 -0.0817,-0.354126 -0.0817,-0.544809 0,-0.490327 0.46308,-0.68101 2.83301,-0.272405 6.86459,-0.789973 6.42874,-1.2803 6.72839,-1.2803 0.51756,0 0.51756,0.762732 0,0.871694 -0.1362,2.315436 -0.16344,1.716147 -0.19068,2.315437 -0.21792,5.09396 -0.21792,9.61587 0,0.653771 0.21792,0.653771 -0.2724,0 2.47888,-1.579945 2.77852,-1.579945 5.09396,-1.579945 3.26885,0 5.69325,1.716147 2.6968,1.93407 2.6968,5.06672 z"
         style="font-style:normal;font-variant:normal;font-weight:bold;font-stretch:normal;font-family:'Berlin Sans FB';-inkscape-font-specification:'Berlin Sans FB Bold';letter-spacing:-2.46689343px;fill:#008080;stroke-width:0.26458332"
         id="path4957" />
      <path
         d="m 168.17975,28.639655 q 0,1.007896 -0.16344,3.078168 -0.16345,2.043032 -0.16345,3.078169 0,1.007895 0.0817,3.050928 0.0817,2.015791 0.0817,3.023687 0,1.198579 -2.50612,1.198579 -0.57205,0 -1.49823,-0.05448 -0.92617,-0.08172 -1.17133,-0.08172 -1.96131,0 -1.96131,1.525464 0,1.607185 0.19068,4.821555 0.19068,3.214371 0.19068,4.821556 0,1.389262 -1.17134,1.389262 -0.87169,0 -2.64232,-0.08172 -1.77063,-0.08172 -2.64232,-0.08172 -0.92617,0 -2.80576,0.02724 -1.85235,0.02724 -2.77853,0.02724 -1.17134,0 -1.17134,-1.171339 V 40.489241 q 0,-5.938413 -1.17133,-10.21516 -0.0817,-0.299645 -0.0817,-0.517568 0,-0.544809 0.46309,-0.708251 0.68101,-0.245164 2.86025,-0.435847 2.53336,-0.217924 3.13265,-0.326885 5.55704,-1.116858 5.91117,-1.116858 0.54481,0 0.65377,1.797868 0.1362,1.797868 0.51757,1.797868 -0.24517,0 2.17923,-1.470983 2.45164,-1.470983 4.95776,-1.470983 0.70825,0 0.70825,0.817213 z"
         style="font-style:normal;font-variant:normal;font-weight:bold;font-stretch:normal;font-family:'Berlin Sans FB';-inkscape-font-specification:'Berlin Sans FB Bold';letter-spacing:-2.46689343px;fill:#008080;stroke-width:0.26458332"
         id="path4959" />
      <path
         d="m 196.27661,40.652684 q 0,6.265298 -4.03158,10.351362 -4.03158,4.058824 -10.29688,4.058824 -6.10186,0 -10.21516,-3.977103 -4.11331,-3.977102 -4.11331,-10.051718 0,-6.374259 3.94986,-10.542045 4.05883,-4.222266 10.37861,-4.222266 6.2653,0 10.29688,4.058824 4.03158,4.058823 4.03158,10.324122 z m -11.82234,0 q 0,-1.062377 -0.73549,-1.797869 -0.70826,-0.762732 -1.77063,-0.762732 -1.06238,0 -1.79787,0.735492 -0.70825,0.735491 -0.70825,1.825109 0,1.062376 0.70825,1.825108 0.73549,0.735492 1.79787,0.735492 1.08961,0 1.79787,-0.735492 0.70825,-0.735491 0.70825,-1.825108 z"
         style="font-style:normal;font-variant:normal;font-weight:bold;font-stretch:normal;font-family:'Berlin Sans FB';-inkscape-font-specification:'Berlin Sans FB Bold';letter-spacing:-2.46689343px;fill:#008080;stroke-width:0.26458332"
         id="path4961" />
      <path
         d="m 229.46744,41.442656 q 0,5.802211 -3.56849,9.752073 -3.7047,4.086064 -9.42519,4.086064 -2.23372,0 -5.61153,-1.797868 -0.24516,0 -0.24516,0.789972 0,1.225819 -0.0545,3.650217 -0.0545,2.424398 -0.0545,3.650218 0,1.389261 -1.17133,1.389261 -8.28109,0 -11.00514,-0.217923 -1.17133,-0.08172 -1.17133,-1.171338 V 40.489241 q 0,-5.611528 -0.89894,-11.440979 -0.0545,-0.354126 -0.0545,-0.517569 0,-0.517568 0.46309,-0.708251 2.88748,-0.245164 6.78286,-0.599289 0.0272,-0.02724 3.40506,-0.572049 2.36991,-0.381366 3.24161,-0.381366 0.81721,0 1.03513,1.089617 0.24517,1.062377 0.57205,1.062377 0.51757,0 2.152,-0.354126 1.63442,-0.354125 2.50612,-0.354125 5.72049,0 9.45242,4.004342 3.65022,3.922622 3.65022,9.724833 z m -13.78365,-0.217924 q 0,-1.089617 -0.7355,-1.879589 -0.70825,-0.817213 -1.77062,-0.817213 -1.08962,0 -1.79787,0.817213 -0.70825,0.789972 -0.70825,1.879589 0,1.035137 0.73549,1.85235 0.73549,0.817212 1.77063,0.817212 1.06237,0 1.77062,-0.789972 0.7355,-0.789972 0.7355,-1.87959 z"
         style="font-style:normal;font-variant:normal;font-weight:bold;font-stretch:normal;font-family:'Berlin Sans FB';-inkscape-font-specification:'Berlin Sans FB Bold';letter-spacing:-2.46689343px;fill:#008080;stroke-width:0.26458332"
         id="path4963" />
      <path
         d="m 257.59155,40.652684 q 0,6.265298 -4.03158,10.351362 -4.03158,4.058824 -10.29688,4.058824 -6.10186,0 -10.21516,-3.977103 -4.11331,-3.977102 -4.11331,-10.051718 0,-6.374259 3.94987,-10.542045 4.05882,-4.222266 10.3786,-4.222266 6.2653,0 10.29688,4.058824 4.03158,4.058823 4.03158,10.324122 z m -11.82234,0 q 0,-1.062377 -0.73549,-1.797869 -0.70825,-0.762732 -1.77063,-0.762732 -1.06238,0 -1.79787,0.735492 -0.70825,0.735491 -0.70825,1.825109 0,1.062376 0.70825,1.825108 0.73549,0.735492 1.79787,0.735492 1.08962,0 1.79787,-0.735492 0.70825,-0.735491 0.70825,-1.825108 z"
         style="font-style:normal;font-variant:normal;font-weight:bold;font-stretch:normal;font-family:'Berlin Sans FB';-inkscape-font-specification:'Berlin Sans FB Bold';letter-spacing:-2.46689343px;fill:#008080;stroke-width:0.26458332"
         id="path4965" />
      <path
         d="m 276.39942,32.453315 q 0,0.190683 -2.12475,2.369917 -2.12475,2.151994 -2.12475,3.432294 0,1.198579 1.63442,3.377813 1.66167,2.151994 1.66167,4.712594 0,1.770628 -0.76273,3.323332 -0.43585,0.871694 -1.87959,2.860245 -0.95342,1.362021 -2.5606,3.18713 -2.17924,2.506119 -2.83301,2.506119 -0.38136,0 -1.00789,-0.435847 -5.80222,-4.140545 -8.98935,-5.74773 -0.59928,-0.299645 -0.59928,-0.572049 0,-0.136202 2.36991,-2.969206 2.39716,-2.833005 2.39716,-4.603633 0,-1.253059 -1.82511,-3.023687 -1.79787,-1.770628 -1.79787,-4.004343 0,-2.53336 2.94197,-6.483222 2.20647,-2.996447 4.985,-5.502566 0.43584,-0.408606 0.73549,-0.408606 0.35412,0 0.78997,0.463087 1.82511,1.879589 8.41729,6.810107 0.57205,0.408606 0.57205,0.708251 z"
         style="font-style:normal;font-variant:normal;font-weight:bold;font-stretch:normal;font-family:'Berlin Sans FB';-inkscape-font-specification:'Berlin Sans FB Bold';letter-spacing:-2.46689343px;fill:#008080;stroke-width:0.26458332"
         id="path4967" />
      <path
         d="m 304.93215,43.948775 q 0,0.844453 -0.19069,2.53336 -0.19068,1.688906 -0.19068,2.53336 0,0.980655 -0.0272,2.887485 -0.0272,1.90683 -0.0272,2.860245 0,0.789972 -0.95342,0.789972 -0.0545,0 -2.61508,-0.62653 -3.26885,-0.762732 -9.88827,-0.762732 -2.152,0 -6.45598,0.245164 -4.27675,0.245164 -6.42874,0.245164 -1.22582,0 -1.22582,-0.898934 0,-2.478879 -1.38926,-7.191473 -0.16345,-0.572049 -0.16345,-0.735491 0,-0.681011 2.2882,-1.035137 1.44374,-0.136202 2.88748,-0.272404 1.71615,-0.245164 4.985,-4.140545 3.26885,-3.895381 3.26885,-5.693249 0,-2.941966 -3.10541,-2.941966 -2.86024,0 -5.50256,1.389262 -2.64232,1.389261 -2.47888,1.389261 -1.11686,0 -1.2803,-1.634425 0.0545,0.408606 0.0545,-2.397158 0,-1.416502 -0.57205,-3.595736 -0.54481,-2.206475 -0.54481,-2.5606 0,-0.408607 0.59929,-0.817213 4.46743,-2.941966 13.29333,-2.941966 5.36637,0 9.0983,2.233715 4.49467,2.724042 4.49467,7.763521 0,4.222267 -1.87959,7.136992 -1.2803,1.988552 -5.14844,5.393605 7.49112,-0.326885 8.19937,-0.326885 0.89894,0 0.89894,1.171338 z"
         style="font-style:normal;font-variant:normal;font-weight:bold;font-stretch:normal;font-family:'Berlin Sans FB';-inkscape-font-specification:'Berlin Sans FB Bold';letter-spacing:-2.46689343px;fill:#008080;stroke-width:0.26458332"
         id="path4969" />
      <path
         d="m 320.87977,46.509375 q 0,3.514015 -2.53336,6.047375 -2.50612,2.50612 -6.02013,2.50612 -3.51402,0 -6.02014,-2.50612 -2.50612,-2.53336 -2.50612,-6.047375 0,-3.514015 2.50612,-6.020134 2.50612,-2.506119 6.02014,-2.506119 3.51401,0 6.02013,2.506119 2.53336,2.506119 2.53336,6.020134 z"
         style="font-style:normal;font-variant:normal;font-weight:bold;font-stretch:normal;font-family:'Berlin Sans FB';-inkscape-font-specification:'Berlin Sans FB Bold';letter-spacing:-2.46689343px;fill:#008080;stroke-width:0.26458332"
         id="path4971" />
      <path
         d="m 355.32366,37.928641 q 0,7.191473 -5.09396,12.285432 -5.06672,5.06672 -12.25819,5.06672 -7.19147,0 -12.28543,-5.06672 -5.06672,-5.093959 -5.06672,-12.285432 0,-7.191473 5.06672,-12.258192 5.09396,-5.09396 12.28543,-5.09396 7.19147,0 12.25819,5.09396 5.09396,5.066719 5.09396,12.258192 z m -13.67469,0 q 0,-1.498224 -1.08962,-2.587841 -1.08961,-1.089617 -2.58784,-1.089617 -1.49822,0 -2.58784,1.089617 -1.08962,1.089617 -1.08962,2.587841 0,1.498223 1.08962,2.58784 1.08962,1.089617 2.58784,1.089617 1.49823,0 2.58784,-1.089617 1.08962,-1.089617 1.08962,-2.58784 z"
         style="font-style:normal;font-variant:normal;font-weight:bold;font-stretch:normal;font-family:'Berlin Sans FB';-inkscape-font-specification:'Berlin Sans FB Bold';letter-spacing:-2.46689343px;fill:#008080;stroke-width:0.26458332"
         id="path4973" />
    </g>
  </g>
</svg>
